<?xml version="1.0" encoding="UTF-8"?>
<level>
  <owner>Fistachka</owner>
  <repo>dominant-f</repo>
  <version>v1.0.16</version>
  <next number="1" owner="stolbitsa" repo="dominant-harmonic-Eb"/>
  <readme>
    <ru>6baaf5603a1bbf363d64d7efc55dbdebe9ed00b95fc07fa36cc49b5c7bf093be</ru>
    <en>c5092caf8b2de988c070f28fad68cbb87116a7b56e2ef3b22b156824aebf1d25</en>
  </readme>
  <license>b1b99f5538d1fd3702219bff50c665196dfa42f6ee755c37fe41a6178d6bc6e5</license>
  <exercise number="1">
    <scale>major</scale>
    <bpm>80</bpm>
    <lowestNote>1</lowestNote>
    <tonalities>6</tonalities>
    <video name="колеса звук1.mp4" size="1996538" type="video/mp4" volume="0.679">161b28bd31256f6ac86f9e5cbe3538478729b18ccf9ab4ab71e8724977c1fb9e</video>
    <notes>
      <note number="1" values="1,18" ticks="0" durationTicks="96" ppq="96" velocity="0.802"/>
      <note number="2" values="1,5,18" ticks="98" durationTicks="91" ppq="96" velocity="0.889"/>
      <note number="3" values="5,18" ticks="191" durationTicks="95" ppq="96" velocity="0.757"/>
      <note number="4" values="1,5,18" ticks="288" durationTicks="95" ppq="96" velocity="0.869"/>
    </notes>
  </exercise>
  <exercise number="2">
    <scale>major</scale>
    <bpm>80</bpm>
    <lowestNote>1</lowestNote>
    <tonalities>6</tonalities>
    <video name="колеса звук2.mp4" size="1924562" type="video/mp4" volume="0.672">d6c8e798b1815fcefe5ed98a1cb0fad5fc95615fe4e48d953dbe2d6e965357d1</video>
    <notes>
      <note number="1" values="1,5,18" ticks="0" durationTicks="120" ppq="192" velocity="0.864"/>
      <note number="2" values="1,5,18" ticks="152" durationTicks="130" ppq="192" velocity="0.844"/>
      <note number="3" values="1,18" ticks="307" durationTicks="129" ppq="192" velocity="0.887"/>
      <note number="4" values="1,5,18" ticks="459" durationTicks="175" ppq="192" velocity="0.892"/>
    </notes>
  </exercise>
  <exercise number="3">
    <scale>major</scale>
    <bpm>80</bpm>
    <lowestNote>1</lowestNote>
    <tonalities>6</tonalities>
    <video name="колеса звук3.mp4" size="1988684" type="video/mp4" volume="0.671">110d9593f5d157f51c89db8a53310fc543cd4cefacbdf325e604c3118c7e2bd0</video>
    <notes>
      <note number="1" values="1,5,18" ticks="0" durationTicks="105" ppq="96" velocity="0.843"/>
      <note number="2" values="1,5,18" ticks="56" durationTicks="91" ppq="96" velocity="0.913"/>
      <note number="3" values="1,5,18" ticks="146" durationTicks="100" ppq="96" velocity="0.874"/>
      <note number="4" values="1,5,18" ticks="202" durationTicks="90" ppq="96" velocity="0.939"/>
    </notes>
  </exercise>
  <exercise number="4">
    <scale>major</scale>
    <bpm>80</bpm>
    <lowestNote>1</lowestNote>
    <tonalities>6</tonalities>
    <video name="колеса звук4.mp4" size="1958917" type="video/mp4" volume="0.671">43a7606d0c06e5b5590334481ad5c3754ad8a169f918c4a68b4c6f214c462abc</video>
    <notes>
      <note number="1" values="1,5,18" ticks="0" durationTicks="88" ppq="96" velocity="0.843"/>
      <note number="2" values="1,5,18" ticks="62" durationTicks="79" ppq="96" velocity="0.913"/>
      <note number="3" values="1,5,18" ticks="146" durationTicks="92" ppq="96" velocity="0.874"/>
      <note number="4" values="1,5,18" ticks="209" durationTicks="86" ppq="96" velocity="0.921"/>
    </notes>
  </exercise>
  <exercise number="5">
    <scale>major</scale>
    <bpm>80</bpm>
    <lowestNote>1</lowestNote>
    <tonalities>6</tonalities>
    <video name="колеса звук5.mp4" size="2054327" type="video/mp4" volume="0.676">32120b3ad08cd44c2abdc108b538c6661da12126fe6b3d99275ce12577b03739</video>
    <notes>
      <note number="1" values="1,5,18" ticks="3" durationTicks="71" ppq="96" velocity="0.912"/>
      <note number="2" values="1,5,18" ticks="56" durationTicks="85" ppq="96" velocity="0.809"/>
      <note number="3" values="1,5,18" ticks="145" durationTicks="79" ppq="96" velocity="0.867"/>
      <note number="4" values="1,5,18" ticks="228" durationTicks="64" ppq="96" velocity="0.877"/>
      <note number="5" values="1,5,18" ticks="285" durationTicks="52" ppq="96" velocity="0.914"/>
    </notes>
  </exercise>
  <exercise number="6">
    <scale>major</scale>
    <bpm>80</bpm>
    <lowestNote>1</lowestNote>
    <tonalities>6</tonalities>
    <video name="колеса звук6.mp4" size="1801927" type="video/mp4" volume="0.676">4dc26048b7037703b7eb59cc1b6ae997a061d1168f664a6d98816525962bb97b</video>
    <notes>
      <note number="1" values="1,5,18" ticks="0" durationTicks="81" ppq="96" velocity="0.843"/>
      <note number="2" values="1,5,18" ticks="73" durationTicks="81" ppq="96" velocity="0.913"/>
      <note number="3" values="1,5,18" ticks="147" durationTicks="86" ppq="96" velocity="0.847"/>
      <note number="4" values="1,5,18" ticks="226" durationTicks="81" ppq="96" velocity="0.921"/>
      <note number="5" values="1,5,18" ticks="300" durationTicks="74" ppq="96" velocity="0.834"/>
    </notes>
  </exercise>
  <exercise number="7">
    <scale>major</scale>
    <bpm>80</bpm>
    <lowestNote>1</lowestNote>
    <tonalities>6</tonalities>
    <video name="колеса звук7.mp4" size="1800527" type="video/mp4" volume="0.671">021f666d6f62c9cdc251e9eda5f096d72c3ad5830d96d36531d1795bd461056e</video>
    <notes>
      <note number="1" values="1,5,18" ticks="0" durationTicks="105" ppq="96" velocity="0.843"/>
      <note number="2" values="1,5,18" ticks="56" durationTicks="91" ppq="96" velocity="0.913"/>
      <note number="3" values="1,5,18" ticks="164" durationTicks="112" ppq="96" velocity="0.874"/>
      <note number="4" values="1,5,18" ticks="220" durationTicks="99" ppq="96" velocity="0.921"/>
    </notes>
  </exercise>
  <exercise number="8">
    <scale>major</scale>
    <bpm>80</bpm>
    <lowestNote>1</lowestNote>
    <tonalities>6</tonalities>
    <video name="колеса звук8.mp4" size="2017985" type="video/mp4" volume="0.677">701679855812ba5c5cffaefe4c6cfc7bf95960dbeb95d8f20bf62fd7b0e4eb1f</video>
    <notes>
      <note number="1" values="1,5,18" ticks="15" durationTicks="82" ppq="96" velocity="0.889"/>
      <note number="2" values="1,5,18" ticks="93" durationTicks="80" ppq="96" velocity="0.854"/>
      <note number="3" values="1,5,18" ticks="170" durationTicks="80" ppq="96" velocity="0.862"/>
      <note number="4" values="1,5,18" ticks="246" durationTicks="85" ppq="96" velocity="0.932"/>
    </notes>
  </exercise>
  <exercise number="9">
    <scale>major</scale>
    <bpm>80</bpm>
    <lowestNote>1</lowestNote>
    <tonalities>6</tonalities>
    <video name="колеса звук9.mp4" size="1669057" type="video/mp4" volume="0.674">4cd47e8848b1f0c36b6faf6b2f828e7f3d3f4ae0f9f4259ea7ddbd9cbbadaff1</video>
    <notes>
      <note number="1" values="1,5,18" ticks="0" durationTicks="105" ppq="96" velocity="0.843"/>
      <note number="2" values="1,5,18" ticks="56" durationTicks="91" ppq="96" velocity="0.913"/>
      <note number="3" values="1,5,18" ticks="146" durationTicks="103" ppq="96" velocity="0.874"/>
      <note number="4" values="1,5,18" ticks="202" durationTicks="85" ppq="96" velocity="0.921"/>
    </notes>
  </exercise>
  <exercise number="10">
    <scale>major</scale>
    <bpm>80</bpm>
    <lowestNote>1</lowestNote>
    <tonalities>6</tonalities>
    <video name="колеса звук10.mp4" size="2006741" type="video/mp4" volume="0.674">40cf566ef4be4224eda4eb4e375eaeecc98df55c1a027a016a79832cc06b3918</video>
    <notes>
      <note number="1" values="1,5,18" ticks="0" durationTicks="80" ppq="96" velocity="0.843"/>
      <note number="2" values="1,5,18" ticks="86" durationTicks="100" ppq="96" velocity="0.913"/>
      <note number="3" values="1,5,18" ticks="140" durationTicks="113" ppq="96" velocity="0.874"/>
      <note number="4" values="1,5,18" ticks="195" durationTicks="103" ppq="96" velocity="0.921"/>
      <note number="5" values="1,5,18" ticks="280" durationTicks="199" ppq="96" velocity="0.921"/>
    </notes>
  </exercise>
</level>
